<svg data-v-423bf9ae="" xmlns="http://www.w3.org/2000/svg" viewBox="0 0 1529.1667911105685 1613" class="iconAboveSlogan"><!----><!----><!----><g data-v-423bf9ae="" id="77cff5be-6fd5-43b9-bdf2-77a38b128c34" fill="black" transform="matrix(6.295907206394921,0,0,6.295907206394921,455.6746772526955,1502.3041017134829)"><path d="M3.32 10.50L0.63 10.50L0.63 1.33L3.44 1.33L3.44 1.33Q6.50 1.33 6.50 3.71L6.50 3.71L6.50 3.71Q6.50 4.48 6.10 5.04L6.10 5.04L6.10 5.04Q5.71 5.60 5.04 5.74L5.04 5.74L5.04 5.74Q5.82 5.85 6.27 6.42L6.27 6.42L6.27 6.42Q6.71 6.99 6.72 7.90L6.72 7.90L6.72 7.90Q6.72 10.50 3.32 10.50L3.32 10.50ZM3.53 9.24L3.53 9.24Q4.45 9.24 4.84 8.83L4.84 8.83L4.84 8.83Q5.24 8.43 5.24 7.75L5.24 7.75L5.24 7.75Q5.24 7.07 4.81 6.76L4.81 6.76L4.81 6.76Q4.38 6.45 3.46 6.45L3.46 6.45L2.09 6.45L2.09 9.24L3.53 9.24ZM5.07 3.82L5.07 3.82L5.07 3.82Q5.07 2.59 3.54 2.59L3.54 2.59L2.09 2.59L2.09 5.19L3.43 5.19L3.43 5.19Q5.07 5.19 5.07 3.82ZM10.00 5.17L8.44 5.17L8.44 3.88L11.44 3.88L11.44 9.21L12.99 9.21L12.99 10.50L8.33 10.50L8.33 9.21L10.00 9.21L10.00 5.17ZM10.04 2.65L10.04 2.65L10.04 2.65Q9.77 2.38 9.77 2.02L9.77 2.02L9.77 2.02Q9.77 1.65 10.02 1.40L10.02 1.40L10.02 1.40Q10.28 1.15 10.64 1.15L10.64 1.15L10.64 1.15Q11.00 1.15 11.26 1.39L11.26 1.39L11.26 1.39Q11.51 1.64 11.51 2.02L11.51 2.02L11.51 2.02Q11.51 2.39 11.26 2.66L11.26 2.66L11.26 2.66Q11.00 2.93 10.65 2.93L10.65 2.93L10.65 2.93Q10.30 2.93 10.04 2.65ZM16.21 5.14L15.13 5.14L15.13 3.85L17.65 3.85L17.68 4.52L17.68 4.52Q18.13 4.27 18.85 4.04L18.85 4.04L18.85 4.04Q19.57 3.81 20.19 3.74L20.19 3.74L20.19 5.14L20.19 5.14Q19.64 5.19 18.89 5.43L18.89 5.43L18.89 5.43Q18.13 5.67 17.68 5.92L17.68 5.92L17.68 9.24L19.73 9.24L19.73 10.50L15.13 10.50L15.13 9.21L16.21 9.21L16.21 5.14ZM25.96 1.16L27.38 1.16L27.38 9.34L27.52 10.50L26.11 10.64L25.98 10.00L25.98 10.00Q25.07 10.65 24.21 10.65L24.21 10.65L24.21 10.65Q22.90 10.65 22.25 9.89L22.25 9.89L22.25 9.89Q21.59 9.13 21.59 7.31L21.59 7.31L21.59 7.31Q21.59 5.49 22.39 4.61L22.39 4.61L22.39 4.61Q23.18 3.74 24.46 3.74L24.46 3.74L24.46 3.74Q25.20 3.74 25.96 4.06L25.96 4.06L25.96 1.16ZM24.30 9.31L24.30 9.31L24.30 9.31Q25.05 9.31 25.96 8.55L25.96 8.55L25.96 5.43L25.96 5.43Q25.23 5.08 24.53 5.08L24.53 5.08L24.53 5.08Q23.14 5.08 23.14 7.31L23.14 7.31L23.14 7.31Q23.14 9.31 24.30 9.31ZM28.88 10.19L28.88 10.19L29.19 8.92L29.19 8.92Q30.52 9.34 31.30 9.34L31.30 9.34L31.30 9.34Q32.09 9.34 32.37 9.18L32.37 9.18L32.37 9.18Q32.65 9.04 32.65 8.68L32.65 8.68L32.65 8.68Q32.65 8.32 32.40 8.16L32.40 8.16L32.40 8.16Q32.14 8.01 31.44 7.84L31.44 7.84L31.44 7.84Q30.06 7.50 29.51 7.09L29.51 7.09L29.51 7.09Q28.97 6.68 28.97 5.74L28.97 5.74L28.97 5.74Q28.97 3.74 31.54 3.74L31.54 3.74L31.54 3.74Q32.65 3.74 34.10 4.10L34.10 4.10L33.84 5.43L33.84 5.43Q32.45 5.04 31.70 5.04L31.70 5.04L31.70 5.04Q30.94 5.04 30.68 5.17L30.68 5.17L30.68 5.17Q30.42 5.31 30.42 5.63L30.42 5.63L30.42 5.63Q30.42 5.95 30.68 6.10L30.68 6.10L30.68 6.10Q30.94 6.24 32.02 6.54L32.02 6.54L32.02 6.54Q33.10 6.83 33.60 7.22L33.60 7.22L33.60 7.22Q34.10 7.60 34.10 8.53L34.10 8.53L34.10 8.53Q34.10 10.64 31.50 10.64L31.50 10.64L31.50 10.64Q30.28 10.64 28.88 10.19ZM38.32 10.50L35.63 10.50L35.63 1.33L38.44 1.33L38.44 1.33Q41.50 1.33 41.50 3.71L41.50 3.71L41.50 3.71Q41.50 4.48 41.10 5.04L41.10 5.04L41.10 5.04Q40.71 5.60 40.04 5.74L40.04 5.74L40.04 5.74Q40.82 5.85 41.27 6.42L41.27 6.42L41.27 6.42Q41.71 6.99 41.72 7.90L41.72 7.90L41.72 7.90Q41.72 10.50 38.32 10.50L38.32 10.50ZM38.53 9.24L38.53 9.24Q39.45 9.24 39.84 8.83L39.84 8.83L39.84 8.83Q40.24 8.43 40.24 7.75L40.24 7.75L40.24 7.75Q40.24 7.07 39.81 6.76L39.81 6.76L39.81 6.76Q39.38 6.45 38.46 6.45L38.46 6.45L37.09 6.45L37.09 9.24L38.53 9.24ZM40.07 3.82L40.07 3.82L40.07 3.82Q40.07 2.59 38.54 2.59L38.54 2.59L37.09 2.59L37.09 5.19L38.43 5.19L38.43 5.19Q40.07 5.19 40.07 3.82ZM43.30 4.58L43.30 4.58L43.30 4.58Q44.02 3.74 45.50 3.74L45.50 3.74L45.50 3.74Q46.98 3.74 47.70 4.58L47.70 4.58L47.70 4.58Q48.41 5.43 48.41 7.20L48.41 7.20L48.41 7.20Q48.41 8.96 47.70 9.82L47.70 9.82L47.70 9.82Q46.98 10.68 45.50 10.68L45.50 10.68L45.50 10.68Q44.02 10.68 43.30 9.82L43.30 9.82L43.30 9.82Q42.59 8.96 42.59 7.20L42.59 7.20L42.59 7.20Q42.59 5.43 43.30 4.58ZM44.43 5.59L44.43 5.59L44.43 5.59Q44.14 6.08 44.14 7.20L44.14 7.20L44.14 7.20Q44.14 8.32 44.44 8.82L44.44 8.82L44.44 8.82Q44.73 9.32 45.50 9.32L45.50 9.32L45.50 9.32Q46.27 9.32 46.56 8.82L46.56 8.82L46.56 8.82Q46.86 8.32 46.86 7.20L46.86 7.20L46.86 7.20Q46.86 6.08 46.57 5.59L46.57 5.59L46.57 5.59Q46.28 5.10 45.50 5.10L45.50 5.10L45.50 5.10Q44.72 5.10 44.43 5.59ZM51.21 5.14L50.13 5.14L50.13 3.85L52.65 3.85L52.68 4.52L52.68 4.52Q53.13 4.27 53.85 4.04L53.85 4.04L53.85 4.04Q54.57 3.81 55.19 3.74L55.19 3.74L55.19 5.14L55.19 5.14Q54.64 5.19 53.89 5.43L53.89 5.43L53.89 5.43Q53.13 5.67 52.68 5.92L52.68 5.92L52.68 9.24L54.73 9.24L54.73 10.50L50.13 10.50L50.13 9.21L51.21 9.21L51.21 5.14ZM56.69 7.18L56.69 7.18Q56.69 5.49 57.44 4.61L57.44 4.61L57.44 4.61Q58.20 3.74 59.54 3.74L59.54 3.74L59.54 3.74Q60.89 3.74 61.62 4.53L61.62 4.53L61.62 4.53Q62.36 5.32 62.38 6.85L62.38 6.85L62.33 7.88L58.24 7.88L58.24 7.88Q58.37 9.39 59.75 9.39L59.75 9.39L59.75 9.39Q60.72 9.39 61.80 9.04L61.80 9.04L62.09 10.26L62.09 10.26Q61.64 10.42 60.93 10.54L60.93 10.54L60.93 10.54Q60.21 10.65 59.75 10.65L59.75 10.65L59.75 10.65Q56.69 10.65 56.69 7.18L56.69 7.18ZM59.60 5.04L59.60 5.04L59.60 5.04Q58.94 5.04 58.61 5.42L58.61 5.42L58.61 5.42Q58.28 5.81 58.24 6.71L58.24 6.71L60.83 6.71L60.83 6.71Q60.83 5.04 59.60 5.04ZM67.96 1.16L69.38 1.16L69.38 9.34L69.52 10.50L68.11 10.64L67.98 10.00L67.98 10.00Q67.07 10.65 66.21 10.65L66.21 10.65L66.21 10.65Q64.90 10.65 64.25 9.89L64.25 9.89L64.25 9.89Q63.59 9.13 63.59 7.31L63.59 7.31L63.59 7.31Q63.59 5.49 64.39 4.61L64.39 4.61L64.39 4.61Q65.18 3.74 66.46 3.74L66.46 3.74L66.46 3.74Q67.20 3.74 67.96 4.06L67.96 4.06L67.96 1.16ZM66.30 9.31L66.30 9.31L66.30 9.31Q67.05 9.31 67.96 8.55L67.96 8.55L67.96 5.43L67.96 5.43Q67.23 5.08 66.53 5.08L66.53 5.08L66.53 5.08Q65.14 5.08 65.14 7.31L65.14 7.31L65.14 7.31Q65.14 9.31 66.30 9.31ZM79.41 9.18L83.15 9.18L83.15 10.50L77.95 10.50L77.95 1.33L79.41 1.33L79.41 9.18ZM86.41 9.18L90.15 9.18L90.15 10.50L84.95 10.50L84.95 1.33L86.41 1.33L86.41 9.18ZM97.24 9.00L97.24 9.00L97.50 10.22L97.50 10.22Q96.07 10.64 95.09 10.64L95.09 10.64L95.09 10.64Q94.12 10.64 93.53 10.42L93.53 10.42L93.53 10.42Q92.93 10.19 92.48 9.66L92.48 9.66L92.48 9.66Q91.56 8.58 91.56 5.82L91.56 5.82L91.56 5.82Q91.56 1.19 94.95 1.19L94.95 1.19L94.95 1.19Q96.12 1.19 97.31 1.60L97.31 1.60L97.01 2.79L97.01 2.79Q95.91 2.49 94.97 2.49L94.97 2.49L94.97 2.49Q94.02 2.49 93.53 3.22L93.53 3.22L93.53 3.22Q93.04 3.95 93.04 5.86L93.04 5.86L93.04 5.86Q93.04 7.77 93.44 8.56L93.44 8.56L93.44 8.56Q93.84 9.35 94.93 9.35L94.93 9.35L94.93 9.35Q96.01 9.35 97.24 9.00Z"></path></g><!----><g data-v-423bf9ae="" id="d32c2236-2afb-4af7-bf4c-34c89e7e94c4" transform="matrix(4.0777777777777775,0,0,4.0777777777777775,-278.41115807427286,-295.41111111111104)" stroke="none" fill="black"><path d="M195.6 264.1l-15.3-7.6c-.1.3-14.3 27.3-57.9 12.8l-5.4 16.2c11.1 3.7 20.8 5.2 29.3 5.2 35.5-.1 49.1-26.3 49.3-26.6z"></path><path d="M443.5 155.2l-1-12.9-67.3-16.8c-3.4-29.8-28.7-53-59.3-53-32.9 0-59.7 26.8-59.7 59.7v109.9c-13.1-25.5-39.2-41.6-68.2-41.6-29.3 0-55.6 16.4-68.6 42.3H77l-8.5.4v8.5c0 76 55.6 139.2 128.3 151.3v36.4h17.1v-34.5c2.7.1 5.5.4 8.2.4 2.9 0 5.7-.3 8.5-.4v34.6h17.1V403c72.3-12.2 127.6-75 127.9-151v-71.1l61.7-23.2 6.2-2.5zm-84.9 96.5c0 75.3-61.2 136.5-136.5 136.5-72.4 0-131.8-56.7-136.2-128.4h44.7l2.2-5.3c9.3-22.5 30.9-37 55.2-37 23.2 0 43.9 13.3 53.8 34.1-3.8 9-16.2 34.5-37.8 44.1-11.8 5.3-24.3 5-38.3-.8l-6.5 15.8c9.4 3.9 18.6 5.9 27.5 5.9 8.4 0 16.5-1.7 24.3-5.2 26.1-11.6 40.6-39.5 45.9-51.6h16.5V132.3c0-23.5 19.1-42.7 42.7-42.7s42.7 19.1 42.7 42.7v119.4zm17-89.1v-19.4l31.1 7.8-31.1 11.6z"></path><circle cx="320.2" cy="128" r="12.8"></circle></g><!----><g data-v-423bf9ae="" id="63e78976-229b-43fd-996e-10e2581ef7d7" fill="black" transform="matrix(2.527006381763642,0,0,2.527006381763642,536.2932867297174,1595.7324837673616)"><path d="M2.87 10.50L0.80 10.50L0 1.33L1.40 1.33L2.02 9.21L2.10 9.21L2.97 5.14L4.21 5.14L5.04 9.21L5.14 9.21L5.63 1.33L6.99 1.33L6.36 10.50L4.23 10.50L3.58 6.89L3.54 6.89L2.87 10.50ZM9.23 5.60L9.23 5.60L9.23 10.50L7.78 10.50L7.78 1.16L9.23 1.16L9.23 4.24L9.23 4.24Q10.36 3.74 11.00 3.74L11.00 3.74L11.00 3.74Q12.21 3.74 12.71 4.44L12.71 4.44L12.71 4.44Q13.20 5.14 13.20 6.48L13.20 6.48L13.20 10.50L11.76 10.50L11.76 6.45L11.76 6.45Q11.76 5.87 11.53 5.48L11.53 5.48L11.53 5.48Q11.30 5.10 10.92 5.10L10.92 5.10L10.92 5.10Q10.23 5.10 9.23 5.60ZM14.69 7.18L14.69 7.18Q14.69 5.49 15.44 4.61L15.44 4.61L15.44 4.61Q16.20 3.74 17.54 3.74L17.54 3.74L17.54 3.74Q18.89 3.74 19.62 4.53L19.62 4.53L19.62 4.53Q20.36 5.32 20.38 6.85L20.38 6.85L20.33 7.88L16.24 7.88L16.24 7.88Q16.37 9.39 17.75 9.39L17.75 9.39L17.75 9.39Q18.72 9.39 19.80 9.04L19.80 9.04L20.09 10.26L20.09 10.26Q19.64 10.42 18.93 10.54L18.93 10.54L18.93 10.54Q18.21 10.65 17.75 10.65L17.75 10.65L17.75 10.65Q14.69 10.65 14.69 7.18L14.69 7.18ZM17.60 5.04L17.60 5.04L17.60 5.04Q16.94 5.04 16.61 5.42L16.61 5.42L16.61 5.42Q16.28 5.81 16.24 6.71L16.24 6.71L18.83 6.71L18.83 6.71Q18.83 5.04 17.60 5.04ZM23.21 5.14L22.13 5.14L22.13 3.85L24.65 3.85L24.68 4.52L24.68 4.52Q25.13 4.27 25.85 4.04L25.85 4.04L25.85 4.04Q26.57 3.81 27.19 3.74L27.19 3.74L27.19 5.14L27.19 5.14Q26.64 5.19 25.89 5.43L25.89 5.43L25.89 5.43Q25.13 5.67 24.68 5.92L24.68 5.92L24.68 9.24L26.73 9.24L26.73 10.50L22.13 10.50L22.13 9.21L23.21 9.21L23.21 5.14ZM28.69 7.18L28.69 7.18Q28.69 5.49 29.44 4.61L29.44 4.61L29.44 4.61Q30.20 3.74 31.54 3.74L31.54 3.74L31.54 3.74Q32.89 3.74 33.62 4.53L33.62 4.53L33.62 4.53Q34.36 5.32 34.38 6.85L34.38 6.85L34.33 7.88L30.24 7.88L30.24 7.88Q30.37 9.39 31.75 9.39L31.75 9.39L31.75 9.39Q32.72 9.39 33.80 9.04L33.80 9.04L34.09 10.26L34.09 10.26Q33.64 10.42 32.93 10.54L32.93 10.54L32.93 10.54Q32.21 10.65 31.75 10.65L31.75 10.65L31.75 10.65Q28.69 10.65 28.69 7.18L28.69 7.18ZM31.60 5.04L31.60 5.04L31.60 5.04Q30.94 5.04 30.61 5.42L30.61 5.42L30.61 5.42Q30.28 5.81 30.24 6.71L30.24 6.71L32.83 6.71L32.83 6.71Q32.83 5.04 31.60 5.04ZM44.20 10.50L42.80 10.50L42.80 1.16L44.24 1.16L44.24 4.34L44.24 4.34Q45.11 3.74 45.86 3.74L45.86 3.74L45.86 3.74Q47.32 3.74 47.96 4.58L47.96 4.58L47.96 4.58Q48.61 5.43 48.61 7.22L48.61 7.22L48.61 7.22Q48.61 9.02 47.82 9.84L47.82 9.84L47.82 9.84Q47.03 10.65 45.72 10.65L45.72 10.65L45.72 10.65Q45.12 10.65 44.23 10.22L44.23 10.22L44.20 10.50ZM45.68 5.10L45.68 5.10L45.68 5.10Q45.00 5.10 44.24 5.73L44.24 5.73L44.24 8.88L44.24 8.88Q45.08 9.30 45.75 9.30L45.75 9.30L45.75 9.30Q46.42 9.30 46.74 8.79L46.74 8.79L46.74 8.79Q47.05 8.27 47.05 7.21L47.05 7.21L47.05 7.21Q47.05 5.10 45.68 5.10ZM50.30 4.58L50.30 4.58L50.30 4.58Q51.02 3.74 52.50 3.74L52.50 3.74L52.50 3.74Q53.98 3.74 54.70 4.58L54.70 4.58L54.70 4.58Q55.41 5.43 55.41 7.20L55.41 7.20L55.41 7.20Q55.41 8.96 54.70 9.82L54.70 9.82L54.70 9.82Q53.98 10.68 52.50 10.68L52.50 10.68L52.50 10.68Q51.02 10.68 50.30 9.82L50.30 9.82L50.30 9.82Q49.59 8.96 49.59 7.20L49.59 7.20L49.59 7.20Q49.59 5.43 50.30 4.58ZM51.43 5.59L51.43 5.59L51.43 5.59Q51.14 6.08 51.14 7.20L51.14 7.20L51.14 7.20Q51.14 8.32 51.44 8.82L51.44 8.82L51.44 8.82Q51.73 9.32 52.50 9.32L52.50 9.32L52.50 9.32Q53.27 9.32 53.56 8.82L53.56 8.82L53.56 8.82Q53.86 8.32 53.86 7.20L53.86 7.20L53.86 7.20Q53.86 6.08 53.57 5.59L53.57 5.59L53.57 5.59Q53.28 5.10 52.50 5.10L52.50 5.10L52.50 5.10Q51.72 5.10 51.43 5.59ZM58.21 5.14L57.13 5.14L57.13 3.85L59.65 3.85L59.68 4.52L59.68 4.52Q60.13 4.27 60.85 4.04L60.85 4.04L60.85 4.04Q61.57 3.81 62.19 3.74L62.19 3.74L62.19 5.14L62.19 5.14Q61.64 5.19 60.89 5.43L60.89 5.43L60.89 5.43Q60.13 5.67 59.68 5.92L59.68 5.92L59.68 9.24L61.73 9.24L61.73 10.50L57.13 10.50L57.13 9.21L58.21 9.21L58.21 5.14ZM63.69 7.18L63.69 7.18Q63.69 5.49 64.44 4.61L64.44 4.61L64.44 4.61Q65.20 3.74 66.54 3.74L66.54 3.74L66.54 3.74Q67.89 3.74 68.62 4.53L68.62 4.53L68.62 4.53Q69.36 5.32 69.38 6.85L69.38 6.85L69.33 7.88L65.24 7.88L65.24 7.88Q65.37 9.39 66.75 9.39L66.75 9.39L66.75 9.39Q67.72 9.39 68.80 9.04L68.80 9.04L69.09 10.26L69.09 10.26Q68.64 10.42 67.93 10.54L67.93 10.54L67.93 10.54Q67.21 10.65 66.75 10.65L66.75 10.65L66.75 10.65Q63.69 10.65 63.69 7.18L63.69 7.18ZM66.60 5.04L66.60 5.04L66.60 5.04Q65.94 5.04 65.61 5.42L65.61 5.42L65.61 5.42Q65.28 5.81 65.24 6.71L65.24 6.71L67.83 6.71L67.83 6.71Q67.83 5.04 66.60 5.04ZM74.96 1.16L76.38 1.16L76.38 9.34L76.52 10.50L75.11 10.64L74.98 10.00L74.98 10.00Q74.07 10.65 73.21 10.65L73.21 10.65L73.21 10.65Q71.90 10.65 71.25 9.89L71.25 9.89L71.25 9.89Q70.59 9.13 70.59 7.31L70.59 7.31L70.59 7.31Q70.59 5.49 71.39 4.61L71.39 4.61L71.39 4.61Q72.18 3.74 73.46 3.74L73.46 3.74L73.46 3.74Q74.20 3.74 74.96 4.06L74.96 4.06L74.96 1.16ZM73.30 9.31L73.30 9.31L73.30 9.31Q74.05 9.31 74.96 8.55L74.96 8.55L74.96 5.43L74.96 5.43Q74.23 5.08 73.53 5.08L73.53 5.08L73.53 5.08Q72.14 5.08 72.14 7.31L72.14 7.31L72.14 7.31Q72.14 9.31 73.30 9.31ZM78.30 4.58L78.30 4.58L78.30 4.58Q79.02 3.74 80.50 3.74L80.50 3.74L80.50 3.74Q81.98 3.74 82.70 4.58L82.70 4.58L82.70 4.58Q83.41 5.43 83.41 7.20L83.41 7.20L83.41 7.20Q83.41 8.96 82.70 9.82L82.70 9.82L82.70 9.82Q81.98 10.68 80.50 10.68L80.50 10.68L80.50 10.68Q79.02 10.68 78.30 9.82L78.30 9.82L78.30 9.82Q77.59 8.96 77.59 7.20L77.59 7.20L77.59 7.20Q77.59 5.43 78.30 4.58ZM79.43 5.59L79.43 5.59L79.43 5.59Q79.14 6.08 79.14 7.20L79.14 7.20L79.14 7.20Q79.14 8.32 79.44 8.82L79.44 8.82L79.44 8.82Q79.73 9.32 80.50 9.32L80.50 9.32L80.50 9.32Q81.27 9.32 81.56 8.82L81.56 8.82L81.56 8.82Q81.86 8.32 81.86 7.20L81.86 7.20L81.86 7.20Q81.86 6.08 81.57 5.59L81.57 5.59L81.57 5.59Q81.28 5.10 80.50 5.10L80.50 5.10L80.50 5.10Q79.72 5.10 79.43 5.59ZM84.32 3.85L85.69 3.85L85.74 4.23L85.74 4.23Q86.27 3.74 86.77 3.74L86.77 3.74L86.77 3.74Q87.49 3.74 87.85 4.27L87.85 4.27L87.85 4.27Q88.58 3.74 89.14 3.74L89.14 3.74L89.14 3.74Q89.98 3.74 90.33 4.23L90.33 4.23L90.33 4.23Q90.69 4.72 90.69 6.05L90.69 6.05L90.69 10.50L89.26 10.50L89.26 6.66L89.26 6.66Q89.26 5.38 89.04 5.18L89.04 5.18L89.04 5.18Q88.93 5.07 88.72 5.07L88.72 5.07L88.72 5.07Q88.51 5.07 88.19 5.35L88.19 5.35L88.19 5.35Q88.26 5.67 88.26 6.66L88.26 6.66L88.26 8.22L86.84 8.22L86.84 6.66L86.84 6.66Q86.84 5.39 86.69 5.18L86.69 5.18L86.69 5.18Q86.60 5.07 86.40 5.07L86.40 5.07L86.40 5.07Q86.20 5.07 85.79 5.38L85.79 5.38L85.79 10.50L84.32 10.50L84.32 3.85ZM99.96 7.95L99.96 5.14L98.90 5.14L98.90 3.85L99.96 3.85L99.96 2.25L101.40 2.11L101.40 3.85L103.89 3.85L103.89 5.14L101.40 5.14L101.40 7.95L101.40 7.95Q101.40 8.72 101.56 9.03L101.56 9.03L101.56 9.03Q101.72 9.34 102.28 9.34L102.28 9.34L102.28 9.34Q102.84 9.34 103.77 9.11L103.77 9.11L104.01 10.37L104.01 10.37Q102.94 10.65 102.19 10.65L102.19 10.65L102.19 10.65Q100.84 10.65 100.40 10.05L100.40 10.05L100.40 10.05Q99.96 9.45 99.96 7.95L99.96 7.95ZM108.02 9.30L108.02 9.30L108.02 9.30Q108.42 9.30 108.89 9.11L108.89 9.11L108.89 9.11Q109.37 8.93 109.65 8.71L109.65 8.71L109.65 7.73L109.65 7.73Q108.81 7.66 108.28 7.66L108.28 7.66L108.28 7.66Q107.11 7.66 107.11 8.53L107.11 8.53L107.11 8.53Q107.11 9.30 108.02 9.30ZM107.80 10.65L107.80 10.65L107.80 10.65Q105.56 10.65 105.56 8.53L105.56 8.53L105.56 8.53Q105.56 7.39 106.28 6.94L106.28 6.94L106.28 6.94Q107.00 6.48 108.28 6.48L108.28 6.48L108.28 6.48Q108.88 6.48 109.65 6.55L109.65 6.55L109.65 6.55Q109.65 5.71 109.41 5.40L109.41 5.40L109.41 5.40Q109.17 5.10 108.58 5.10L108.58 5.10L108.58 5.10Q108.00 5.10 107.21 5.24L107.21 5.24L107.21 5.24Q106.43 5.38 106.01 5.52L106.01 5.52L105.74 4.19L105.74 4.19Q107.21 3.74 108.61 3.74L108.61 3.74L108.61 3.74Q110.01 3.74 110.55 4.35L110.55 4.35L110.55 4.35Q111.09 4.97 111.09 6.44L111.09 6.44L111.09 9.28L111.24 10.51L109.80 10.65L109.66 10.01L109.66 10.01Q108.49 10.65 107.80 10.65ZM117.11 3.85L117.11 3.85L118.66 3.85L118.66 3.85Q117.10 6.40 116.62 6.96L116.62 6.96L116.62 6.96Q116.89 7.34 117.28 7.97L117.28 7.97L118.79 10.50L117.12 10.50L116.47 9.32L116.47 9.32Q115.81 8.15 115.50 7.66L115.50 7.66L114.52 7.77L114.52 10.50L113.08 10.50L113.08 1.16L114.52 1.16L114.52 6.52L115.47 6.43L115.47 6.43Q115.84 5.95 116.47 4.91L116.47 4.91L116.47 4.91Q117.10 3.86 117.11 3.85ZM119.69 7.18L119.69 7.18Q119.69 5.49 120.44 4.61L120.44 4.61L120.44 4.61Q121.20 3.74 122.54 3.74L122.54 3.74L122.54 3.74Q123.89 3.74 124.62 4.53L124.62 4.53L124.62 4.53Q125.36 5.32 125.38 6.85L125.38 6.85L125.33 7.88L121.24 7.88L121.24 7.88Q121.37 9.39 122.75 9.39L122.75 9.39L122.75 9.39Q123.72 9.39 124.80 9.04L124.80 9.04L125.09 10.26L125.09 10.26Q124.64 10.42 123.93 10.54L123.93 10.54L123.93 10.54Q123.21 10.65 122.75 10.65L122.75 10.65L122.75 10.65Q119.69 10.65 119.69 7.18L119.69 7.18ZM122.60 5.04L122.60 5.04L122.60 5.04Q121.94 5.04 121.61 5.42L121.61 5.42L121.61 5.42Q121.28 5.81 121.24 6.71L121.24 6.71L123.83 6.71L123.83 6.71Q123.83 5.04 122.60 5.04ZM126.88 10.19L126.88 10.19L127.19 8.92L127.19 8.92Q128.52 9.34 129.30 9.34L129.30 9.34L129.30 9.34Q130.09 9.34 130.37 9.18L130.37 9.18L130.37 9.18Q130.65 9.04 130.65 8.68L130.65 8.68L130.65 8.68Q130.65 8.32 130.40 8.16L130.40 8.16L130.40 8.16Q130.14 8.01 129.44 7.84L129.44 7.84L129.44 7.84Q128.06 7.50 127.51 7.09L127.51 7.09L127.51 7.09Q126.97 6.68 126.97 5.74L126.97 5.74L126.97 5.74Q126.97 3.74 129.54 3.74L129.54 3.74L129.54 3.74Q130.65 3.74 132.10 4.10L132.10 4.10L131.84 5.43L131.84 5.43Q130.45 5.04 129.70 5.04L129.70 5.04L129.70 5.04Q128.94 5.04 128.68 5.17L128.68 5.17L128.68 5.17Q128.42 5.31 128.42 5.63L128.42 5.63L128.42 5.63Q128.42 5.95 128.68 6.10L128.68 6.10L128.68 6.10Q128.94 6.24 130.02 6.54L130.02 6.54L130.02 6.54Q131.10 6.83 131.60 7.22L131.60 7.22L131.60 7.22Q132.10 7.60 132.10 8.53L132.10 8.53L132.10 8.53Q132.10 10.64 129.50 10.64L129.50 10.64L129.50 10.64Q128.28 10.64 126.88 10.19ZM142.28 9.24L142.28 5.11L140.91 5.11L140.91 3.85L142.28 3.85L142.28 3.85Q142.28 2.31 142.79 1.64L142.79 1.64L142.79 1.64Q143.29 0.98 144.51 0.98L144.51 0.98L144.51 0.98Q145.33 0.98 146.33 1.22L146.33 1.22L146.10 2.49L146.10 2.49Q145.24 2.30 144.65 2.30L144.65 2.30L144.65 2.30Q144.06 2.30 143.87 2.65L143.87 2.65L143.87 2.65Q143.68 3.00 143.68 3.85L143.68 3.85L146.08 3.85L146.08 5.11L143.68 5.11L143.68 9.24L146.10 9.24L146.10 10.50L140.85 10.50L140.85 9.24L142.28 9.24ZM149.91 2.44L148.39 2.45L148.37 1.18L151.35 1.16L151.35 9.24L152.92 9.24L152.92 10.50L148.33 10.50L148.33 9.24L149.91 9.24L149.91 2.44ZM157.00 5.17L155.44 5.17L155.44 3.88L158.44 3.88L158.44 9.21L159.99 9.21L159.99 10.50L155.33 10.50L155.33 9.21L157.00 9.21L157.00 5.17ZM157.04 2.65L157.04 2.65L157.04 2.65Q156.77 2.38 156.77 2.02L156.77 2.02L156.77 2.02Q156.77 1.65 157.02 1.40L157.02 1.40L157.02 1.40Q157.28 1.15 157.64 1.15L157.64 1.15L157.64 1.15Q158.00 1.15 158.26 1.39L158.26 1.39L158.26 1.39Q158.51 1.64 158.51 2.02L158.51 2.02L158.51 2.02Q158.51 2.39 158.26 2.66L158.26 2.66L158.26 2.66Q158.00 2.93 157.65 2.93L157.65 2.93L157.65 2.93Q157.30 2.93 157.04 2.65ZM167.38 3.81L167.38 8.89L167.43 10.82L167.43 10.82Q167.43 12.03 166.61 12.67L166.61 12.67L166.61 12.67Q165.80 13.31 164.42 13.31L164.42 13.31L164.42 13.31Q163.03 13.31 161.73 12.85L161.73 12.85L162.08 11.56L162.08 11.56Q163.34 11.98 164.16 11.98L164.16 11.98L164.16 11.98Q164.99 11.98 165.49 11.70L165.49 11.70L165.49 11.70Q165.98 11.41 165.98 10.84L165.98 10.84L165.98 10.84Q165.98 10.72 165.96 10.39L165.96 10.39L165.96 10.39Q165.94 10.07 165.94 9.88L165.94 9.88L165.94 9.88Q165.05 10.51 164.21 10.51L164.21 10.51L164.21 10.51Q162.92 10.51 162.25 9.72L162.25 9.72L162.25 9.72Q161.57 8.92 161.57 7.17L161.57 7.17L161.57 7.17Q161.57 5.43 162.34 4.60L162.34 4.60L162.34 4.60Q163.10 3.77 164.43 3.77L164.43 3.77L164.43 3.77Q164.72 3.77 165.18 3.91L165.18 3.91L165.18 3.91Q165.63 4.05 165.94 4.21L165.94 4.21L165.97 3.81L167.38 3.81ZM164.30 9.18L164.30 9.18L164.30 9.18Q165.02 9.18 165.94 8.48L165.94 8.48L165.94 5.60L165.94 5.60Q165.14 5.10 164.47 5.10L164.47 5.10L164.47 5.10Q163.13 5.10 163.13 7.14L163.13 7.14L163.13 7.14Q163.13 9.18 164.30 9.18ZM170.23 5.60L170.23 5.60L170.23 10.50L168.78 10.50L168.78 1.16L170.23 1.16L170.23 4.24L170.23 4.24Q171.36 3.74 172.00 3.74L172.00 3.74L172.00 3.74Q173.21 3.74 173.71 4.44L173.71 4.44L173.71 4.44Q174.20 5.14 174.20 6.48L174.20 6.48L174.20 10.50L172.76 10.50L172.76 6.45L172.76 6.45Q172.76 5.87 172.53 5.48L172.53 5.48L172.53 5.48Q172.30 5.10 171.92 5.10L171.92 5.10L171.92 5.10Q171.23 5.10 170.23 5.60ZM176.96 7.95L176.96 5.14L175.90 5.14L175.90 3.85L176.96 3.85L176.96 2.25L178.40 2.11L178.40 3.85L180.89 3.85L180.89 5.14L178.40 5.14L178.40 7.95L178.40 7.95Q178.40 8.72 178.56 9.03L178.56 9.03L178.56 9.03Q178.72 9.34 179.28 9.34L179.28 9.34L179.28 9.34Q179.84 9.34 180.77 9.11L180.77 9.11L181.01 10.37L181.01 10.37Q179.94 10.65 179.19 10.65L179.19 10.65L179.19 10.65Q177.84 10.65 177.40 10.05L177.40 10.05L177.40 10.05Q176.96 9.45 176.96 7.95L176.96 7.95Z"></path></g></svg>