<svg data-v-423bf9ae="" xmlns="http://www.w3.org/2000/svg" viewBox="0 0 609.8845483757017 60" class="font"><!----><!----><!----><g data-v-423bf9ae="" id="5b7b45b0-9989-4a6d-8c45-3b5d0df9a42c" fill="white" transform="matrix(6.295907206394921,0,0,6.295907206394921,-3.9664207697654206,-7.240293733294486)"><path d="M3.32 10.50L0.63 10.50L0.63 1.33L3.44 1.33L3.44 1.33Q6.50 1.33 6.50 3.71L6.50 3.71L6.50 3.71Q6.50 4.48 6.10 5.04L6.10 5.04L6.10 5.04Q5.71 5.60 5.04 5.74L5.04 5.74L5.04 5.74Q5.82 5.85 6.27 6.42L6.27 6.42L6.27 6.42Q6.71 6.99 6.72 7.90L6.72 7.90L6.72 7.90Q6.72 10.50 3.32 10.50L3.32 10.50ZM3.53 9.24L3.53 9.24Q4.45 9.24 4.84 8.83L4.84 8.83L4.84 8.83Q5.24 8.43 5.24 7.75L5.24 7.75L5.24 7.75Q5.24 7.07 4.81 6.76L4.81 6.76L4.81 6.76Q4.38 6.45 3.46 6.45L3.46 6.45L2.09 6.45L2.09 9.24L3.53 9.24ZM5.07 3.82L5.07 3.82L5.07 3.82Q5.07 2.59 3.54 2.59L3.54 2.59L2.09 2.59L2.09 5.19L3.43 5.19L3.43 5.19Q5.07 5.19 5.07 3.82ZM10.00 5.17L8.44 5.17L8.44 3.88L11.44 3.88L11.44 9.21L12.99 9.21L12.99 10.50L8.33 10.50L8.33 9.21L10.00 9.21L10.00 5.17ZM10.04 2.65L10.04 2.65L10.04 2.65Q9.77 2.38 9.77 2.02L9.77 2.02L9.77 2.02Q9.77 1.65 10.02 1.40L10.02 1.40L10.02 1.40Q10.28 1.15 10.64 1.15L10.64 1.15L10.64 1.15Q11.00 1.15 11.26 1.39L11.26 1.39L11.26 1.39Q11.51 1.64 11.51 2.02L11.51 2.02L11.51 2.02Q11.51 2.39 11.26 2.66L11.26 2.66L11.26 2.66Q11.00 2.93 10.65 2.93L10.65 2.93L10.65 2.93Q10.30 2.93 10.04 2.65ZM16.21 5.14L15.13 5.14L15.13 3.85L17.65 3.85L17.68 4.52L17.68 4.52Q18.13 4.27 18.85 4.04L18.85 4.04L18.85 4.04Q19.57 3.81 20.19 3.74L20.19 3.74L20.19 5.14L20.19 5.14Q19.64 5.19 18.89 5.43L18.89 5.43L18.89 5.43Q18.13 5.67 17.68 5.92L17.68 5.92L17.68 9.24L19.73 9.24L19.73 10.50L15.13 10.50L15.13 9.21L16.21 9.21L16.21 5.14ZM25.96 1.16L27.38 1.16L27.38 9.34L27.52 10.50L26.11 10.64L25.98 10.00L25.98 10.00Q25.07 10.65 24.21 10.65L24.21 10.65L24.21 10.65Q22.90 10.65 22.25 9.89L22.25 9.89L22.25 9.89Q21.59 9.13 21.59 7.31L21.59 7.31L21.59 7.31Q21.59 5.49 22.39 4.61L22.39 4.61L22.39 4.61Q23.18 3.74 24.46 3.74L24.46 3.74L24.46 3.74Q25.20 3.74 25.96 4.06L25.96 4.06L25.96 1.16ZM24.30 9.31L24.30 9.31L24.30 9.31Q25.05 9.31 25.96 8.55L25.96 8.55L25.96 5.43L25.96 5.43Q25.23 5.08 24.53 5.08L24.53 5.08L24.53 5.08Q23.14 5.08 23.14 7.31L23.14 7.31L23.14 7.31Q23.14 9.31 24.30 9.31ZM28.88 10.19L28.88 10.19L29.19 8.92L29.19 8.92Q30.52 9.34 31.30 9.34L31.30 9.34L31.30 9.34Q32.09 9.34 32.37 9.18L32.37 9.18L32.37 9.18Q32.65 9.04 32.65 8.68L32.65 8.68L32.65 8.68Q32.65 8.32 32.40 8.16L32.40 8.16L32.40 8.16Q32.14 8.01 31.44 7.84L31.44 7.84L31.44 7.84Q30.06 7.50 29.51 7.09L29.51 7.09L29.51 7.09Q28.97 6.68 28.97 5.74L28.97 5.74L28.97 5.74Q28.97 3.74 31.54 3.74L31.54 3.74L31.54 3.74Q32.65 3.74 34.10 4.10L34.10 4.10L33.84 5.43L33.84 5.43Q32.45 5.04 31.70 5.04L31.70 5.04L31.70 5.04Q30.94 5.04 30.68 5.17L30.68 5.17L30.68 5.17Q30.42 5.31 30.42 5.63L30.42 5.63L30.42 5.63Q30.42 5.95 30.68 6.10L30.68 6.10L30.68 6.10Q30.94 6.24 32.02 6.54L32.02 6.54L32.02 6.54Q33.10 6.83 33.60 7.22L33.60 7.22L33.60 7.22Q34.10 7.60 34.10 8.53L34.10 8.53L34.10 8.53Q34.10 10.64 31.50 10.64L31.50 10.64L31.50 10.64Q30.28 10.64 28.88 10.19ZM38.32 10.50L35.63 10.50L35.63 1.33L38.44 1.33L38.44 1.33Q41.50 1.33 41.50 3.71L41.50 3.71L41.50 3.71Q41.50 4.48 41.10 5.04L41.10 5.04L41.10 5.04Q40.71 5.60 40.04 5.74L40.04 5.74L40.04 5.74Q40.82 5.85 41.27 6.42L41.27 6.42L41.27 6.42Q41.71 6.99 41.72 7.90L41.72 7.90L41.72 7.90Q41.72 10.50 38.32 10.50L38.32 10.50ZM38.53 9.24L38.53 9.24Q39.45 9.24 39.84 8.83L39.84 8.83L39.84 8.83Q40.24 8.43 40.24 7.75L40.24 7.75L40.24 7.75Q40.24 7.07 39.81 6.76L39.81 6.76L39.81 6.76Q39.38 6.45 38.46 6.45L38.46 6.45L37.09 6.45L37.09 9.24L38.53 9.24ZM40.07 3.82L40.07 3.82L40.07 3.82Q40.07 2.59 38.54 2.59L38.54 2.59L37.09 2.59L37.09 5.19L38.43 5.19L38.43 5.19Q40.07 5.19 40.07 3.82ZM43.30 4.58L43.30 4.58L43.30 4.58Q44.02 3.74 45.50 3.74L45.50 3.74L45.50 3.74Q46.98 3.74 47.70 4.58L47.70 4.58L47.70 4.58Q48.41 5.43 48.41 7.20L48.41 7.20L48.41 7.20Q48.41 8.96 47.70 9.82L47.70 9.82L47.70 9.82Q46.98 10.68 45.50 10.68L45.50 10.68L45.50 10.68Q44.02 10.68 43.30 9.82L43.30 9.82L43.30 9.82Q42.59 8.96 42.59 7.20L42.59 7.20L42.59 7.20Q42.59 5.43 43.30 4.58ZM44.43 5.59L44.43 5.59L44.43 5.59Q44.14 6.08 44.14 7.20L44.14 7.20L44.14 7.20Q44.14 8.32 44.44 8.82L44.44 8.82L44.44 8.82Q44.73 9.32 45.50 9.32L45.50 9.32L45.50 9.32Q46.27 9.32 46.56 8.82L46.56 8.82L46.56 8.82Q46.86 8.32 46.86 7.20L46.86 7.20L46.86 7.20Q46.86 6.08 46.57 5.59L46.57 5.59L46.57 5.59Q46.28 5.10 45.50 5.10L45.50 5.10L45.50 5.10Q44.72 5.10 44.43 5.59ZM51.21 5.14L50.13 5.14L50.13 3.85L52.65 3.85L52.68 4.52L52.68 4.52Q53.13 4.27 53.85 4.04L53.85 4.04L53.85 4.04Q54.57 3.81 55.19 3.74L55.19 3.74L55.19 5.14L55.19 5.14Q54.64 5.19 53.89 5.43L53.89 5.43L53.89 5.43Q53.13 5.67 52.68 5.92L52.68 5.92L52.68 9.24L54.73 9.24L54.73 10.50L50.13 10.50L50.13 9.21L51.21 9.21L51.21 5.14ZM56.69 7.18L56.69 7.18Q56.69 5.49 57.44 4.61L57.44 4.61L57.44 4.61Q58.20 3.74 59.54 3.74L59.54 3.74L59.54 3.74Q60.89 3.74 61.62 4.53L61.62 4.53L61.62 4.53Q62.36 5.32 62.38 6.85L62.38 6.85L62.33 7.88L58.24 7.88L58.24 7.88Q58.37 9.39 59.75 9.39L59.75 9.39L59.75 9.39Q60.72 9.39 61.80 9.04L61.80 9.04L62.09 10.26L62.09 10.26Q61.64 10.42 60.93 10.54L60.93 10.54L60.93 10.54Q60.21 10.65 59.75 10.65L59.75 10.65L59.75 10.65Q56.69 10.65 56.69 7.18L56.69 7.18ZM59.60 5.04L59.60 5.04L59.60 5.04Q58.94 5.04 58.61 5.42L58.61 5.42L58.61 5.42Q58.28 5.81 58.24 6.71L58.24 6.71L60.83 6.71L60.83 6.71Q60.83 5.04 59.60 5.04ZM67.96 1.16L69.38 1.16L69.38 9.34L69.52 10.50L68.11 10.64L67.98 10.00L67.98 10.00Q67.07 10.65 66.21 10.65L66.21 10.65L66.21 10.65Q64.90 10.65 64.25 9.89L64.25 9.89L64.25 9.89Q63.59 9.13 63.59 7.31L63.59 7.31L63.59 7.31Q63.59 5.49 64.39 4.61L64.39 4.61L64.39 4.61Q65.18 3.74 66.46 3.74L66.46 3.74L66.46 3.74Q67.20 3.74 67.96 4.06L67.96 4.06L67.96 1.16ZM66.30 9.31L66.30 9.31L66.30 9.31Q67.05 9.31 67.96 8.55L67.96 8.55L67.96 5.43L67.96 5.43Q67.23 5.08 66.53 5.08L66.53 5.08L66.53 5.08Q65.14 5.08 65.14 7.31L65.14 7.31L65.14 7.31Q65.14 9.31 66.30 9.31ZM79.41 9.18L83.15 9.18L83.15 10.50L77.95 10.50L77.95 1.33L79.41 1.33L79.41 9.18ZM86.41 9.18L90.15 9.18L90.15 10.50L84.95 10.50L84.95 1.33L86.41 1.33L86.41 9.18ZM97.24 9.00L97.24 9.00L97.50 10.22L97.50 10.22Q96.07 10.64 95.09 10.64L95.09 10.64L95.09 10.64Q94.12 10.64 93.53 10.42L93.53 10.42L93.53 10.42Q92.93 10.19 92.48 9.66L92.48 9.66L92.48 9.66Q91.56 8.58 91.56 5.82L91.56 5.82L91.56 5.82Q91.56 1.19 94.95 1.19L94.95 1.19L94.95 1.19Q96.12 1.19 97.31 1.60L97.31 1.60L97.01 2.79L97.01 2.79Q95.91 2.49 94.97 2.49L94.97 2.49L94.97 2.49Q94.02 2.49 93.53 3.22L93.53 3.22L93.53 3.22Q93.04 3.95 93.04 5.86L93.04 5.86L93.04 5.86Q93.04 7.77 93.44 8.56L93.44 8.56L93.44 8.56Q93.84 9.35 94.93 9.35L94.93 9.35L94.93 9.35Q96.01 9.35 97.24 9.00Z"></path></g><!----><!----></svg>